HIERARCHY
ROOT Pelvis
{
	OFFSET -0.217368 -24.078917 2.858379
	CHANNELS 6 Xposition Yposition Zposition Zrotation Yrotation Xrotation 
	JOINT Left_hip
	{
		OFFSET 5.858135 -8.228005 -1.766408
		CHANNELS 3 Zrotation Yrotation Xrotation
		JOINT Left_knee
		{
			OFFSET 4.345143 -38.646942 0.803700
			CHANNELS 3 Zrotation Yrotation Xrotation
			JOINT Left_ankle
			{
				OFFSET -1.479033 -42.687447 -3.742800
				CHANNELS 3 Zrotation Yrotation Xrotation
				JOINT Left_foot
				{
					OFFSET 4.105436 -6.028605 12.204244
					CHANNELS 3 Zrotation Yrotation Xrotation
					End Site
					{
						OFFSET 0.000000 0.000000 0.000000
					}
				}
			}
		}
	}
	JOINT Right_hip
	{
		OFFSET -6.030973 -9.051328 -1.354253
		CHANNELS 3 Zrotation Yrotation Xrotation
		JOINT Right_knee
		{
			OFFSET -4.325663 -38.368790 -0.484304
			CHANNELS 3 Zrotation Yrotation Xrotation
			JOINT Right_ankle
			{
				OFFSET 1.905555 -42.004566 -3.456167
				CHANNELS 3 Zrotation Yrotation Xrotation
				JOINT Right_foot
				{
					OFFSET -3.483987 -6.210554 13.032330
					CHANNELS 3 Zrotation Yrotation Xrotation
					End Site
					{
						OFFSET 0.000000 0.000000 0.000000
					}
				}
			}
		}
	}
	JOINT Spine1
	{
		OFFSET 0.443945 12.440353 -3.838522
		CHANNELS 3 Zrotation Yrotation Xrotation
		JOINT Spine2
		{
			OFFSET 0.448844 13.795640 2.682033
			CHANNELS 3 Zrotation Yrotation Xrotation
			JOINT Spine3
			{
				OFFSET -0.226460 5.603239 0.285504
				CHANNELS 3 Zrotation Yrotation Xrotation
				JOINT Neck
				{
					OFFSET -1.339018 21.163553 -3.346758
					CHANNELS 3 Zrotation Yrotation Xrotation
					JOINT Head
					{
						OFFSET 1.011321 8.893734 5.040987
						CHANNELS 3 Zrotation Yrotation Xrotation
						End Site
						{
							OFFSET 0.000000 0.000000 0.000000
						}
					}
				}
				JOINT Left_collar
				{
					OFFSET 7.170247 11.399971 -1.889817
					CHANNELS 3 Zrotation Yrotation Xrotation
					JOINT Left_shoulder
					{
						OFFSET 12.292140 4.520507 -1.904600
						CHANNELS 3 Zrotation Yrotation Xrotation
						JOINT Left_elbow
						{
							OFFSET 25.533188 -1.564902 -2.294648
							CHANNELS 3 Zrotation Yrotation Xrotation
							JOINT Left_wrist
							{
								OFFSET 26.570929 1.269810 -0.737473
								CHANNELS 3 Zrotation Yrotation Xrotation
								JOINT Left_palm
								{
									OFFSET 8.669054 -1.063602 -1.559429
									CHANNELS 3 Zrotation Yrotation Xrotation
									End Site
									{
										OFFSET 0.000000 0.000000 0.000000
									}
								}
							}
						}
					}
				}
				JOINT Right_collar
				{
					OFFSET -8.295364 11.247234 -2.370738
					CHANNELS 3 Zrotation Yrotation Xrotation
					JOINT Right_shoulder
					{
						OFFSET -11.322830 4.685326 -0.847207
						CHANNELS 3 Zrotation Yrotation Xrotation
						JOINT Right_elbow
						{
							OFFSET -26.012751 -1.436928 -3.126872
							CHANNELS 3 Zrotation Yrotation Xrotation
							JOINT Right_wrist
							{
								OFFSET -26.910841 0.679372 -0.602677
								CHANNELS 3 Zrotation Yrotation Xrotation
								JOINT Right_palm
								{
									OFFSET -8.875370 -0.865157 -1.010708
									CHANNELS 3 Zrotation Yrotation Xrotation
									End Site
									{
										OFFSET 0.000000 0.000000 0.000000
									}
								}
							}
						}
					}
				}
			}
		}
	}
}
MOTION
Frames: 9
Frame Time: 0.016667
64.202202 66.032410 112.925873 -160.099096 81.933506 -167.163903 1.297005 0.456189 5.886764 -8.312276 1.734600 20.322471 9.060664 17.519812 -16.833387 0.000000 0.000000 0.000000 -5.294378 1.550546 -26.314531 4.887773 -0.640803 32.979724 -4.217138 -9.748383 -3.128428 0.000000 0.000000 0.000000 2.680030 -1.429331 21.651506 -3.653114 1.537833 -21.328306 -2.582035 0.285951 19.774068 10.430455 -5.648912 -12.521182 0.000000 0.000000 0.000000 -16.464575 -22.191269 9.803025 -43.202217 -38.403464 9.167726 -9.544024 -24.104340 2.891080 0.000000 0.000000 0.000000 0.000000 0.000000 0.000000 27.982991 13.404882 5.769875 41.104834 33.787472 7.633966 6.373379 18.662831 1.491523 0.000000 0.000000 0.000000 0.000000 0.000000 0.000000 
68.983437 65.551117 111.934784 -162.106705 82.821172 -168.827344 0.986182 0.811456 9.914511 -8.480286 1.714861 18.732113 9.998179 20.330752 -14.450658 0.000000 0.000000 0.000000 -3.939573 1.932518 -27.732393 4.765941 -0.564119 23.368102 -2.487555 -5.921434 -1.024559 0.000000 0.000000 0.000000 3.792849 -1.523608 19.968382 -4.044366 1.644833 -21.144182 -2.615983 -1.112371 18.452931 11.869993 -6.931265 -10.840297 0.000000 0.000000 0.000000 -16.317857 -23.074848 10.259218 -42.956402 -37.211127 8.624597 -10.776235 -24.510055 3.208013 0.000000 0.000000 0.000000 0.000000 0.000000 0.000000 29.562188 13.280182 5.758972 43.864601 33.271339 8.119097 3.666025 18.234895 1.074778 0.000000 0.000000 0.000000 0.000000 0.000000 0.000000 
74.331635 64.575630 111.020432 -170.986262 81.153894 -178.220083 1.588496 1.023540 13.380670 -9.785625 2.196430 20.801326 9.570965 19.101303 -15.620308 0.000000 0.000000 0.000000 -3.805362 1.935496 -27.345599 4.590179 -0.506718 22.107036 -1.652553 -5.980422 4.724183 0.000000 0.000000 0.000000 4.619529 -1.601548 19.068147 -3.417819 1.471559 -21.793814 -4.079478 -2.516334 19.026076 11.018718 -6.497075 -10.229733 0.000000 0.000000 0.000000 -16.467238 -23.576405 10.553555 -42.862743 -37.748304 8.812524 -12.545685 -22.216397 3.240095 0.000000 0.000000 0.000000 0.000000 0.000000 0.000000 27.412140 12.756200 5.317889 45.553326 33.477786 8.618172 3.054092 17.874372 0.968076 0.000000 0.000000 0.000000 0.000000 0.000000 0.000000 
80.099625 63.644943 110.189575 -173.993339 81.575096 177.266956 1.580552 1.115732 14.535875 -10.264808 2.869302 29.288883 9.264124 18.385243 -12.839433 0.000000 0.000000 0.000000 -2.588695 1.989692 -24.694916 3.444482 -0.103900 27.059617 -0.983311 -3.618276 2.542671 0.000000 0.000000 0.000000 5.911448 -1.751971 18.238292 -2.037796 1.103523 -20.881281 -5.158954 -2.534927 19.632909 7.881579 -4.555913 -9.391992 0.000000 0.000000 0.000000 -16.870537 -23.671855 10.668183 -44.108572 -37.981322 9.247026 -12.220976 -19.410960 2.759291 0.000000 0.000000 0.000000 0.000000 0.000000 0.000000 27.625398 14.915654 6.751707 42.286568 34.965408 8.365839 3.063065 14.572888 0.774986 0.000000 0.000000 0.000000 0.000000 0.000000 0.000000 
85.605385 63.220863 109.457199 -171.581355 81.232750 178.860698 5.288052 0.458418 11.527914 -15.346379 6.352444 42.014317 8.600910 17.477771 -2.627215 0.000000 0.000000 0.000000 -1.213973 2.101548 -22.987984 3.996182 -0.274039 32.329937 -2.373952 -5.367455 -1.694469 0.000000 0.000000 0.000000 7.243314 -1.871939 17.238071 -0.961987 0.806883 -20.595171 -5.963106 -2.114726 19.666833 7.922788 -4.642390 -9.050232 0.000000 0.000000 0.000000 -20.141441 -23.870883 11.302511 -44.773129 -35.506330 8.402147 -12.221886 -18.725630 2.658055 0.000000 0.000000 0.000000 0.000000 0.000000 0.000000 27.081975 14.359461 6.351784 42.240147 33.962319 7.979693 1.909025 16.255058 0.733426 0.000000 0.000000 0.000000 0.000000 0.000000 0.000000 
90.505028 63.232323 108.782745 -167.559257 81.123583 -177.562815 8.803986 -0.014536 6.308649 -18.484839 10.055679 54.116545 8.800347 18.504015 10.284943 0.000000 0.000000 0.000000 -1.128860 1.821519 -19.795623 5.848378 -1.023607 31.830185 -2.564082 -4.918545 -4.028149 0.000000 0.000000 0.000000 8.140387 -2.101532 17.972278 -0.839209 0.775885 -20.753693 -4.641319 -2.717592 18.608529 6.908777 -3.894131 -9.443118 0.000000 0.000000 0.000000 -25.116764 -22.852517 11.473862 -44.992717 -32.415112 7.189965 -11.361306 -19.782315 2.665654 0.000000 0.000000 0.000000 0.000000 0.000000 0.000000 27.196720 14.210539 6.260810 41.658219 33.565513 7.689674 -1.455430 18.047864 0.357889 0.000000 0.000000 0.000000 0.000000 0.000000 0.000000 
94.829697 63.613953 107.964554 -167.520612 81.702314 -177.965206 12.002127 -0.146002 0.213416 -23.107370 14.888205 61.178142 13.023529 24.542138 15.873957 0.000000 0.000000 0.000000 -2.327986 1.277696 -15.326480 7.611638 -1.711313 31.082166 -3.115782 -4.532152 -8.469965 0.000000 0.000000 0.000000 7.557804 -2.081724 18.683788 -0.632088 0.690112 -19.205251 -3.518768 -1.965038 16.424073 7.756978 -4.648697 -8.356316 0.000000 0.000000 0.000000 -26.619029 -21.693552 10.944679 -46.562923 -31.729833 7.238679 -9.859431 -19.585548 2.381726 0.000000 0.000000 0.000000 0.000000 0.000000 0.000000 27.252235 14.031182 6.146266 41.198718 32.241298 7.103308 -2.198815 20.120432 0.280142 0.000000 0.000000 0.000000 0.000000 0.000000 0.000000 
98.781883 64.273117 106.871216 -176.040681 83.493347 173.579749 13.129552 -0.023148 -5.690196 -26.751681 17.231666 59.795768 17.565534 31.498100 11.126989 0.000000 0.000000 0.000000 -4.668594 0.772603 -11.235598 8.416739 -2.021460 30.863126 -3.332387 -5.056016 -8.815269 0.000000 0.000000 0.000000 6.207313 -2.054935 20.810777 0.107463 0.502595 -20.172957 -3.068025 -0.011976 16.810501 6.792221 -4.008449 -8.226472 0.000000 0.000000 0.000000 -27.517974 -20.979482 10.596525 -48.712211 -30.774237 7.266031 -8.787201 -20.196213 2.270614 0.000000 0.000000 0.000000 0.000000 0.000000 0.000000 25.890040 14.203776 6.183302 41.890653 31.567517 7.018149 -5.053865 21.612260 -0.186617 0.000000 0.000000 0.000000 0.000000 0.000000 0.000000 
102.482140 65.144699 105.575684 178.590386 82.954682 168.328855 12.562826 0.034415 -9.949721 -25.887912 15.031441 54.282483 19.396270 35.226427 6.760533 0.000000 0.000000 0.000000 -6.869102 0.448217 -7.264035 10.015490 -2.521490 28.511408 -3.893010 -5.424479 -11.918004 0.000000 0.000000 0.000000 6.316125 -2.042923 20.478270 -0.799758 0.765453 -20.772828 -2.821792 1.436727 18.275761 6.581859 -3.802325 -8.622153 0.000000 0.000000 0.000000 -27.117148 -20.596367 10.286165 -50.419530 -30.849474 7.645508 -10.128750 -20.941524 2.602946 0.000000 0.000000 0.000000 0.000000 0.000000 0.000000 24.955562 13.712072 5.823306 40.350361 30.165761 6.192197 -4.300786 24.290388 -0.078445 0.000000 0.000000 0.000000 0.000000 0.000000 0.000000 
